<svg width="100" height="125" viewBox="0 0 100 125" fill="none" xmlns="http://www.w3.org/2000/svg">
<g clip-path="url(#clip0)">
<path d="M26.2 48.7002L25 38.3002H25.8C26.3 38.3002 26.7 37.9002 26.7 37.4002V34.6002C26.7 34.1002 26.3 33.7002 25.8 33.7002H21.3C20.8 33.7002 20.3 34.1002 20.3 34.6002V37.4002C20.3 37.9002 20.7 38.3002 21.3 38.3002H22L20.8 48.7002L15 34.3002C9.30003 35.7002 4.80003 40.5002 4.00003 46.7002L2.50003 61.1002C2.30003 62.6002 3.30003 64.1002 4.80003 64.4002C7.00003 64.8002 9.20003 65.2002 11.5 65.5002L13.1 90.6002C13.3 92.8002 15.1 94.5002 17.2 94.5002H29.8C32 94.5002 33.8 92.8002 33.9 90.6002L35.5 65.8002C34.6 64.4002 34.2 62.6002 34.3 60.8002L36 45.0002C36.3 42.4002 37.1 39.9002 38.4 37.8002C36.6 36.1002 34.4 34.9002 31.9 34.3002L26.2 48.7002Z" fill="#0057FF"/>
<path d="M95.5999 33.9002H68.1999L62.2999 48.7002L61.0999 38.3002H61.8999C62.3999 38.3002 62.7999 37.9002 62.7999 37.4002V34.6002C62.7999 34.1002 62.3999 33.7002 61.8999 33.7002H57.2999C56.7999 33.7002 56.3999 34.1002 56.3999 34.6002V37.4002C56.3999 37.9002 56.7999 38.3002 57.2999 38.3002H58.0999L56.8999 48.7002L51.0999 34.2002C45.7999 35.4002 41.5999 39.8002 40.9999 45.5002L39.2999 61.3002C39.0999 62.9002 40.1999 64.3002 41.6999 64.6002C43.3999 65.0002 45.6999 65.3002 47.9999 65.5002L49.4999 90.6002C49.5999 92.7002 51.3999 94.4002 53.4999 94.4002H65.6999C67.7999 94.4002 69.5999 92.8002 69.6999 90.6002L71.7999 47.4002C71.7999 45.2002 73.5999 43.5002 75.7999 43.5002H93.3999C94.1999 43.5002 94.8999 43.0002 95.1999 42.3002L97.3999 36.4002C97.7999 35.3002 96.8999 33.9002 95.5999 33.9002Z" fill="#0057FF"/>
<path d="M59.6002 31.3C66.7247 31.3 72.5002 25.5245 72.5002 18.4C72.5002 11.2755 66.7247 5.5 59.6002 5.5C52.4757 5.5 46.7002 11.2755 46.7002 18.4C46.7002 25.5245 52.4757 31.3 59.6002 31.3Z" fill="#0057FF"/>
<path d="M23.5001 31.3C30.6246 31.3 36.4001 25.5245 36.4001 18.4C36.4001 11.2755 30.6246 5.5 23.5001 5.5C16.3756 5.5 10.6001 11.2755 10.6001 18.4C10.6001 25.5245 16.3756 31.3 23.5001 31.3Z" fill="#0057FF"/>
</g>
<defs>
<clipPath id="clip0">
<rect width="100" height="125" fill="white"/>
</clipPath>
</defs>
</svg>
