<svg width="100" height="125" viewBox="0 0 100 125" fill="none" xmlns="http://www.w3.org/2000/svg">
<path d="M27.0998 21.5C29.6998 21.5 31.8998 19.4 31.8998 16.7V7.3C31.8998 4.7 29.7998 2.5 27.0998 2.5C24.3998 2.5 22.2998 4.6 22.2998 7.3V16.8C22.2998 19.4 24.4998 21.5 27.0998 21.5Z" fill="#0057FF"/>
<path d="M58.6999 21.5C61.2999 21.5 63.4999 19.4 63.4999 16.7V7.3C63.4999 4.7 61.3999 2.5 58.6999 2.5C56.0999 2.5 53.8999 4.6 53.8999 7.3V16.8C53.8999 19.4 55.9999 21.5 58.6999 21.5Z" fill="#0057FF"/>
<path d="M81.3999 53.1001V24.1001C81.3999 18.3001 76.6999 13.6001 70.8999 13.6001H66.9999V16.7001C66.9999 21.2001 63.2999 25.0001 58.6999 25.0001C54.0999 25.0001 50.3999 21.3001 50.3999 16.7001V13.6001H35.3999V16.7001C35.3999 21.2001 31.6999 25.0001 27.0999 25.0001C22.4999 25.0001 18.7999 21.3001 18.7999 16.7001V13.6001H14.8999C9.0999 13.6001 4.3999 18.3001 4.3999 24.1001V71.3001C4.3999 77.1001 9.0999 81.8001 14.8999 81.8001H50.5999C53.6999 90.9001 62.2999 97.5001 72.3999 97.5001C85.0999 97.5001 95.4999 87.1001 95.4999 74.4001C95.5999 64.8001 89.6999 56.6001 81.3999 53.1001ZM49.3999 74.4001C49.3999 74.6001 49.3999 74.7001 49.3999 74.9001H14.8999C12.8999 74.9001 11.3999 73.3001 11.3999 71.4001V35.2001H74.3999V51.4001C73.7999 51.3001 73.0999 51.3001 72.4999 51.3001C59.6999 51.3001 49.3999 61.7001 49.3999 74.4001ZM72.4999 90.5001C63.5999 90.5001 56.3999 83.3001 56.3999 74.4001C56.3999 65.5001 63.5999 58.3001 72.4999 58.3001C81.3999 58.3001 88.5999 65.5001 88.5999 74.4001C88.5999 83.3001 81.3999 90.5001 72.4999 90.5001Z" fill="#0057FF"/>
<path d="M80.7 75.3999L76 72.3999V66.3999C76 64.4999 74.4 62.8999 72.5 62.8999C70.6 62.8999 69 64.4999 69 66.3999V74.3999C69 75.5999 69.6 76.6999 70.7 77.3999L77.1 81.2999C77.7 81.6999 78.3 81.7999 78.9 81.7999C80.1 81.7999 81.2 81.1999 81.9 80.0999C82.9 78.4999 82.4 76.3999 80.7 75.3999Z" fill="#0057FF"/>
</svg>
