<svg width="100" height="125" viewBox="0 0 100 125" fill="none" xmlns="http://www.w3.org/2000/svg">
<path d="M44.1 63.9001C43.5005 63.6841 42.8479 63.6646 42.2366 63.8444C41.6253 64.0242 41.0871 64.3939 40.7 64.9001L39.9 65.8001C38.6955 67.0193 37.2458 67.9687 35.6468 68.5855C34.0477 69.2023 32.3359 69.4723 30.6247 69.3778C28.9135 69.2833 27.2419 68.8263 25.7205 68.0371C24.1992 67.2479 22.8628 66.1446 21.8 64.8001C21.4001 64.3113 20.8562 63.9612 20.2457 63.7996C19.6352 63.638 18.9893 63.6732 18.4 63.9001C13.5712 65.7597 9.41934 69.0389 6.49165 73.3055C3.56396 77.572 1.99793 82.6256 2 87.8001V92.6001C2 93.3957 2.31607 94.1588 2.87868 94.7214C3.44129 95.284 4.20435 95.6001 5 95.6001H57.5C58.2957 95.6001 59.0587 95.284 59.6213 94.7214C60.1839 94.1588 60.5 93.3957 60.5 92.6001V87.8001C60.5021 82.6256 58.936 77.572 56.0084 73.3055C53.0807 69.0389 48.9288 65.7597 44.1 63.9001V63.9001Z" fill="#0057FF"/>
<path d="M14.6001 45.8997C14.6001 49.2027 15.5795 52.4314 17.4146 55.1777C19.2496 57.924 21.8578 60.0645 24.9093 61.3285C27.9608 62.5925 31.3186 62.9232 34.5581 62.2788C37.7976 61.6344 40.7732 60.0439 43.1088 57.7084C45.4443 55.3729 47.0348 52.3972 47.6792 49.1577C48.3236 45.9182 47.9929 42.5604 46.7289 39.5089C45.4649 36.4574 43.3244 33.8492 40.5781 32.0142C37.8318 30.1791 34.603 29.1997 31.3001 29.1997C26.871 29.1997 22.6233 30.9592 19.4914 34.091C16.3596 37.2229 14.6001 41.4706 14.6001 45.8997V45.8997Z" fill="#0057FF"/>
<path d="M72.9998 4.3999C68.9175 4.39865 64.8965 5.39313 61.2854 7.29713C57.6743 9.20113 54.5821 11.9572 52.2769 15.3263C49.9717 18.6955 48.523 22.5761 48.0565 26.6316C47.59 30.6872 48.1197 34.7953 49.5998 38.5999C50.3859 40.5931 51.4279 42.4756 52.6998 44.1999L49.6998 51.1999C49.4987 51.6604 49.4166 52.164 49.4608 52.6645C49.505 53.165 49.6743 53.6464 49.953 54.0644C50.2317 54.4825 50.611 54.8239 51.0559 55.0572C51.5009 55.2905 51.9974 55.4084 52.4998 55.3999H52.9998L64.9998 53.2999C68.41 54.3414 72.0035 54.6414 75.5392 54.1797C79.0749 53.718 82.4709 52.5053 85.4993 50.6231C88.5277 48.7408 91.1184 46.2325 93.0976 43.2665C95.0767 40.3005 96.3985 36.9454 96.9742 33.4265C97.5499 29.9076 97.3661 26.3062 96.4354 22.8642C95.5046 19.4221 93.8482 16.219 91.5775 13.4698C89.3068 10.7205 86.4743 8.48888 83.2701 6.92455C80.0659 5.36021 76.5641 4.49941 72.9998 4.3999V4.3999Z" fill="#0057FF"/>
</svg>
