<svg width="100" height="125" viewBox="0 0 100 125" fill="none" xmlns="http://www.w3.org/2000/svg">
<path d="M41.1202 75.0002C39.9046 73.7248 38.4936 72.6514 36.9402 71.8202C35.1785 71.2594 33.3388 70.9826 31.4902 71.0002C29.0502 70.8902 26.3802 70.7602 24.1502 69.7002L17.5002 90.3702C17.4349 90.5796 17.4277 90.8028 17.4795 91.016C17.5313 91.2291 17.64 91.4242 17.7941 91.5803C17.9481 91.7364 18.1417 91.8477 18.3542 91.9023C18.5666 91.9569 18.7899 91.9527 19.0002 91.8902L28.6302 89.0702C28.8604 89.0031 29.1057 89.0083 29.3329 89.0852C29.56 89.1621 29.7581 89.307 29.9002 89.5002L36.0902 97.4302C36.2223 97.6059 36.4004 97.7416 36.605 97.8222C36.8095 97.9028 37.0323 97.9252 37.2488 97.8868C37.4652 97.8485 37.6668 97.751 37.8312 97.6051C37.9956 97.4592 38.1164 97.2706 38.1802 97.0602L44.3902 77.7302C43.2479 76.8847 42.1561 75.9731 41.1202 75.0002V75.0002Z" fill="#0057FF"/>
<path d="M75.5 69.8599C73.2517 70.6487 70.8826 71.0379 68.5 71.0099C66.6535 70.9793 64.8139 71.2426 63.05 71.7899C61.498 72.631 60.0903 73.7147 58.88 74.9999C57.7519 76.0871 56.5453 77.0898 55.27 77.9999L61.15 97.1899C61.2156 97.4001 61.3377 97.5882 61.503 97.7336C61.6684 97.879 61.8705 97.9761 62.0874 98.0143C62.3042 98.0525 62.5274 98.0303 62.7324 97.9502C62.9375 97.87 63.1166 97.735 63.25 97.5599L69.43 89.6299C69.574 89.4389 69.7721 89.2957 69.9987 89.219C70.2252 89.1423 70.4696 89.1356 70.7 89.1999L80.33 91.9999C80.5396 92.06 80.7616 92.0624 80.9725 92.0068C81.1834 91.9512 81.3753 91.8396 81.528 91.6839C81.6806 91.5281 81.7884 91.334 81.8398 91.1221C81.8912 90.9101 81.8844 90.6882 81.82 90.4799L75.5 69.8599Z" fill="#0057FF"/>
<path d="M81.5101 31.27C79.8697 29.6961 78.5162 27.8485 77.5101 25.81C76.7519 23.5828 76.3798 21.2425 76.4101 18.89C76.2801 16.16 76.1601 13.57 74.9001 12.31C73.6401 11.05 71.0001 10.93 68.3101 10.8C65.9576 10.8302 63.6172 10.4582 61.3901 9.7C59.3515 8.69391 57.5039 7.34033 55.9301 5.7C53.8701 3.79 51.9301 2 50.0001 2C48.0701 2 46.1301 3.79 44.0701 5.69C42.4962 7.33033 40.6486 8.68391 38.6101 9.69C36.3829 10.4482 34.0425 10.8202 31.6901 10.79C28.9601 10.92 26.3701 11.04 25.1101 12.3C23.8501 13.56 23.7301 16.15 23.6001 18.88C23.6303 21.2325 23.2582 23.5728 22.5001 25.8C21.494 27.8385 20.1404 29.6861 18.5001 31.26C16.6001 33.32 14.8101 35.26 14.8101 37.19C14.8101 39.12 16.6001 41.06 18.5001 43.12C20.1404 44.6939 21.494 46.5415 22.5001 48.58C23.2582 50.8072 23.6303 53.1475 23.6001 55.5C23.7301 58.23 23.8501 60.82 25.1101 62.08C26.3701 63.34 29.0001 63.47 31.6901 63.6C34.0425 63.5698 36.3829 63.9418 38.6101 64.7C40.6486 65.7061 42.4962 67.0597 44.0701 68.7C46.1301 70.6 48.0701 72.39 50.0001 72.39C51.9301 72.39 53.8701 70.6 55.9301 68.7C57.5039 67.0597 59.3515 65.7061 61.3901 64.7C63.6172 63.9418 65.9576 63.5698 68.3101 63.6C71.0401 63.47 73.6301 63.35 74.8901 62.09C76.1501 60.83 76.2701 58.24 76.4001 55.51C76.3698 53.1575 76.7419 50.8172 77.5001 48.59C78.5062 46.5515 79.8597 44.7039 81.5001 43.13C83.4001 41.07 85.1901 39.13 85.1901 37.2C85.1901 35.27 83.4101 33.33 81.5101 31.27ZM66.6301 34.86L60.0701 41.25C59.8873 41.4319 59.7504 41.6545 59.6704 41.8997C59.5904 42.1448 59.5698 42.4053 59.6101 42.66L61.1601 51.66C61.2088 51.9535 61.1748 52.2549 61.0617 52.5301C60.9487 52.8054 60.7611 53.0436 60.5201 53.2182C60.2791 53.3927 59.9942 53.4966 59.6974 53.5181C59.4006 53.5396 59.1037 53.4779 58.8401 53.34L50.7401 49.09C50.5129 48.9666 50.2585 48.9019 50.0001 48.9019C49.7416 48.9019 49.4872 48.9666 49.2601 49.09L41.1601 53.34C40.8964 53.4779 40.5995 53.5396 40.3027 53.5181C40.0059 53.4966 39.721 53.3927 39.48 53.2182C39.239 53.0436 39.0514 52.8054 38.9384 52.5301C38.8253 52.2549 38.7913 51.9535 38.8401 51.66L40.3901 42.66C40.4304 42.4053 40.4097 42.1448 40.3297 41.8997C40.2498 41.6545 40.1128 41.4319 39.9301 41.25L33.3801 34.86C33.1661 34.6521 33.0146 34.3885 32.9426 34.099C32.8705 33.8095 32.8808 33.5057 32.9724 33.2217C33.0639 32.9378 33.233 32.6851 33.4605 32.4922C33.688 32.2993 33.965 32.1738 34.2601 32.13L43.3101 30.82C43.5682 30.783 43.8134 30.6835 44.0243 30.5301C44.2351 30.3768 44.4053 30.1742 44.5201 29.94L48.5201 21.74C48.6505 21.4717 48.8537 21.2455 49.1066 21.0873C49.3595 20.929 49.6518 20.8451 49.9501 20.8451C50.2484 20.8451 50.5406 20.929 50.7935 21.0873C51.0464 21.2455 51.2496 21.4717 51.3801 21.74L55.3801 29.94C55.4962 30.1731 55.6667 30.3749 55.8774 30.5281C56.088 30.6812 56.3325 30.7814 56.5901 30.82L65.5901 32.13C65.8964 32.1515 66.1902 32.2602 66.4368 32.4432C66.6834 32.6262 66.8725 32.8759 66.9818 33.1629C67.0912 33.4499 67.1161 33.7621 67.0538 34.0628C66.9915 34.3635 66.8444 34.6401 66.6301 34.86Z" fill="#0057FF"/>
</svg>
