<svg width="100" height="125" viewBox="0 0 100 125" fill="none" xmlns="http://www.w3.org/2000/svg">
<path d="M66.7352 10.0498H35.6742C32.0702 10.0498 29.1372 12.9828 29.1372 16.5868V31.5998C29.2412 31.5988 29.3452 31.5938 29.4492 31.5938C30.6982 31.5938 31.9192 31.6618 33.1162 31.7738V18.5288H69.2932V20.9058C69.7122 20.8928 70.1272 20.8698 70.5512 20.8698C71.4722 20.8698 72.3792 20.9008 73.2732 20.9628V16.5868C73.2722 12.9818 70.3402 10.0498 66.7352 10.0498ZM53.3952 15.5388H49.0162C48.3702 15.5388 47.8452 15.0158 47.8452 14.3688C47.8452 13.7218 48.3692 13.1988 49.0162 13.1988H53.3952C54.0412 13.1988 54.5652 13.7218 54.5652 14.3688C54.5652 15.0158 54.0412 15.5388 53.3952 15.5388Z" fill="#0057FF"/>
<path d="M69.7172 58.3067C69.5802 58.4577 69.4362 58.6037 69.2932 58.7507V76.8467H33.1162V71.5857C32.0892 70.8227 31.1242 69.9657 30.2822 69.0297C30.0022 69.0367 29.7242 69.0397 29.4492 69.0397C29.3452 69.0397 29.2412 69.0347 29.1372 69.0337V83.4127C29.1372 87.0167 32.0702 89.9497 35.6742 89.9497H66.7362C70.3402 89.9497 73.2732 87.0167 73.2732 83.4127V58.2207C72.1092 58.2997 70.9242 58.3327 69.7172 58.3067ZM51.2052 86.7977C49.1642 86.7977 47.5102 85.1437 47.5102 83.1027C47.5102 81.0627 49.1642 79.4087 51.2052 79.4087C53.2452 79.4087 54.8992 81.0627 54.8992 83.1027C54.8992 85.1437 53.2452 86.7977 51.2052 86.7977Z" fill="#0057FF"/>
<path d="M70.551 23.3638C67.641 23.3638 64.495 23.8868 61.67 24.5598C57.242 25.6148 52.823 27.7588 49.752 31.1948C47.653 33.5428 46.934 36.1668 46.794 39.0378C42.399 35.9888 36.25 34.0888 29.449 34.0888C16.129 34.0888 5.29297 41.3678 5.29297 50.3168C5.29297 59.2658 16.129 66.5458 29.449 66.5458C30.089 66.5458 30.747 66.5268 31.414 66.4898C34.404 70.4958 39.924 72.9238 42.82 72.9238H45.207L44.151 70.7828C43.14 68.7318 42.446 66.2568 42.256 64.0968C48.936 61.3028 53.16 56.4608 53.566 51.1548C54.88 52.0358 56.307 52.7718 57.742 53.3728C57.553 55.5338 56.859 58.0088 55.847 60.0588L54.791 62.1998H57.179C60.075 62.1998 65.594 59.7718 68.584 55.7668C69.256 55.8038 69.904 55.8228 70.55 55.8228C83.87 55.8228 94.706 48.5428 94.706 39.5938C94.706 30.6448 83.871 23.3638 70.551 23.3638ZM40.201 61.7168L39.224 62.0818L39.236 63.1248C39.259 65.0838 39.672 67.2968 40.382 69.3998C38.036 68.5348 35.022 66.6918 33.407 64.1548L32.928 63.4028L32.038 63.4718C31.155 63.5398 30.284 63.5758 29.448 63.5758C17.765 63.5758 8.25997 57.6278 8.25997 50.3158C8.25997 43.0048 17.765 37.0568 29.448 37.0568C41.132 37.0568 50.636 43.0048 50.636 50.3158C50.638 54.9438 46.639 59.3118 40.201 61.7168ZM70.551 52.8528C69.712 52.8528 68.864 52.8188 67.958 52.7488L67.069 52.6808L66.591 53.4318C64.977 55.9678 61.962 57.8108 59.617 58.6758C60.326 56.5728 60.738 54.3608 60.762 52.4018L60.775 51.3578L59.797 50.9928C57.103 49.9868 54.843 48.6328 53.117 47.0628C52.483 44.9788 51.251 43.0408 49.55 41.3298C49.426 40.7578 49.362 40.1778 49.362 39.5938C49.362 32.2818 58.867 26.3338 70.55 26.3338C82.233 26.3338 91.738 32.2818 91.738 39.5938C91.738 46.9058 82.233 52.8528 70.551 52.8528Z" fill="#0057FF"/>
</svg>
