<svg width="83" height="93" viewBox="0 0 83 93" fill="none" xmlns="http://www.w3.org/2000/svg">
<path d="M82.8125 26.415H76.1875V29.715H82.8125V26.415Z" fill="#0057FF"/>
<path d="M76.4374 6.00958L70.6997 9.30908L72.3557 12.1671L78.0934 8.86761L76.4374 6.00958Z" fill="#0057FF"/>
<path d="M6.37539 6.0112L4.71924 8.86914L10.4568 12.1689L12.1129 9.311L6.37539 6.0112Z" fill="#0057FF"/>
<path d="M6.625 26.415H0V29.715H6.625V26.415Z" fill="#0057FF"/>
<path d="M10.4558 43.9619L4.71826 47.2617L6.37441 50.1197L12.1119 46.8199L10.4558 43.9619Z" fill="#0057FF"/>
<path d="M72.3562 43.9618L70.7002 46.8198L76.4379 50.1193L78.0939 47.2613L72.3562 43.9618Z" fill="#0057FF"/>
<path d="M41.4062 28.0651C41.203 28.0654 41.0015 28.0285 40.8117 27.9562L31.4688 24.3757V31.9657C34.5888 33.4603 37.9565 34.3751 41.4062 34.6651C44.8564 34.376 48.2243 33.4606 51.3438 31.964V24.374L42.0008 27.9545C41.8111 28.0274 41.6096 28.0649 41.4062 28.0651Z" fill="#0057FF"/>
<path d="M54.6562 79.2148H28.1562C27.2777 79.2148 26.4352 79.5625 25.814 80.1814C25.1927 80.8003 24.8438 81.6396 24.8438 82.5148C24.8438 83.3901 25.1927 84.2294 25.814 84.8483C26.4352 85.4672 27.2777 85.8148 28.1562 85.8148H54.6562C55.5348 85.8148 56.3773 85.4672 56.9985 84.8483C57.6198 84.2294 57.9688 83.3901 57.9688 82.5148C57.9688 81.6396 57.6198 80.8003 56.9985 80.1814C56.3773 79.5625 55.5348 79.2148 54.6562 79.2148Z" fill="#0057FF"/>
<path d="M24.4893 18.165L41.4062 24.6478L58.3231 18.165L41.4062 11.6821L24.4893 18.165Z" fill="#0057FF"/>
<path d="M57.9688 69.3154H24.8438C23.9652 69.3154 23.1227 69.6631 22.5015 70.282C21.8802 70.9008 21.5312 71.7402 21.5312 72.6154C21.5312 73.4906 21.8802 74.33 22.5015 74.9489C23.1227 75.5677 23.9652 75.9154 24.8438 75.9154H57.9688C58.8473 75.9154 59.6898 75.5677 60.311 74.9489C60.9323 74.33 61.2812 73.4906 61.2812 72.6154C61.2812 71.7402 60.9323 70.9008 60.311 70.282C59.6898 69.6631 58.8473 69.3154 57.9688 69.3154Z" fill="#0057FF"/>
<path d="M38.0937 92.4152H44.7187C45.7427 92.411 46.7404 92.0917 47.5752 91.501C48.4101 90.9103 49.0414 90.077 49.3827 89.1152H33.4297C33.771 90.077 34.4023 90.9103 35.2372 91.501C36.072 92.0917 37.0697 92.411 38.0937 92.4152V92.4152Z" fill="#0057FF"/>
<path d="M60.1815 7.16129C57.2252 4.50588 53.7334 2.51049 49.9401 1.30877C46.1467 0.107045 42.1394 -0.273256 38.1865 0.193336C31.7265 0.986211 25.7352 3.96338 21.2135 8.62749C16.6918 13.2916 13.9135 19.3602 13.3428 25.8195C13.0081 29.966 13.6059 34.1347 15.0927 38.022C16.5794 41.9093 18.9176 45.4174 21.937 48.2908C23.9364 50.261 25.5173 52.6117 26.5857 55.2032C27.6542 57.7946 28.1883 60.5738 28.1563 63.3751V66.0151H54.6563V63.3751C54.6529 60.5389 55.2166 57.7305 56.3146 55.1137C57.4125 52.4969 59.0227 50.1242 61.051 48.1341C63.7543 45.5331 65.9018 42.4145 67.3645 38.9657C68.8271 35.5169 69.5748 31.8091 69.5625 28.0651C69.5599 24.1199 68.7232 20.2195 67.1069 16.6178C65.4906 13.0162 63.1309 9.79405 60.1815 7.16129V7.16129ZM36.4375 46.2151H29.8125V42.9151H36.4375V46.2151ZM43.0625 46.2151H39.75V42.9151H43.0625V46.2151ZM53 46.2151H46.375V42.9151H53V46.2151ZM63.5321 19.7062L54.6563 23.1151V33.0151C54.6564 33.3218 54.5708 33.6223 54.409 33.8832C54.2472 34.144 54.0157 34.3548 53.7404 34.4919C53.4555 34.6321 46.7063 37.9651 41.4063 37.9651C36.1063 37.9651 29.357 34.6321 29.0722 34.4919C28.7968 34.3548 28.5653 34.144 28.4035 33.8832C28.2417 33.6223 28.1561 33.3218 28.1563 33.0151V23.1151L21.5313 20.5758V25.7403L26.0147 30.2068L23.6728 32.5399L21.5313 30.3982V33.0151H18.2188V30.3982L16.0772 32.5317L13.7353 30.1986L18.2188 25.732V18.1651C18.2185 17.8314 18.3199 17.5055 18.5094 17.2304C18.699 16.9552 18.9678 16.7438 19.2804 16.624L40.8117 8.37403C41.195 8.23045 41.6176 8.23045 42.0009 8.37403L63.5321 16.624C63.8453 16.7434 64.1147 16.9546 64.3048 17.2298C64.4949 17.5049 64.5966 17.8311 64.5966 18.1651C64.5966 18.4992 64.4949 18.8253 64.3048 19.1005C64.1147 19.3757 63.8453 19.5869 63.5321 19.7062V19.7062Z" fill="#0057FF"/>
<path d="M79.5 82.5151H67.9062V85.8151H81.1562C81.5955 85.8151 82.0168 85.6413 82.3274 85.3319C82.638 85.0224 82.8125 84.6028 82.8125 84.1651V74.2651H79.5V82.5151Z" fill="#0057FF"/>
<path d="M82.8125 67.665H79.5V70.965H82.8125V67.665Z" fill="#0057FF"/>
<path d="M82.8125 61.0654H79.5V64.3654H82.8125V61.0654Z" fill="#0057FF"/>
<path d="M82.8125 54.4648H79.5V57.7648H82.8125V54.4648Z" fill="#0057FF"/>
<path d="M3.3125 74.2651H0V84.1651C0 84.6028 0.174498 85.0224 0.485105 85.3319C0.795712 85.6413 1.21699 85.8151 1.65625 85.8151H14.9062V82.5151H3.3125V74.2651Z" fill="#0057FF"/>
<path d="M3.3125 67.665H0V70.965H3.3125V67.665Z" fill="#0057FF"/>
<path d="M3.3125 61.0654H0V64.3654H3.3125V61.0654Z" fill="#0057FF"/>
<path d="M3.3125 54.4648H0V57.7648H3.3125V54.4648Z" fill="#0057FF"/>
</svg>
