<svg width="48" height="48" viewBox="0 0 48 48" fill="none" xmlns="http://www.w3.org/2000/svg">
<g clip-path="url(#clip0)">
<path d="M24.726 29.576C24.726 25.9237 22.968 23.224 19.336 22.2122C21.986 20.9651 23.368 19.0757 23.368 16.1369C23.368 10.3423 18.984 8.9292 13.926 8.9292H0V38.0229H14.316C19.684 38.0229 24.726 35.4872 24.726 29.576ZM6.492 13.8957H12.584C14.926 13.8957 17.034 14.544 17.034 17.2199C17.034 19.6904 15.394 20.6844 13.074 20.6844H6.492V13.8957ZM6.49 33.082V25.0699H13.566C16.424 25.0699 18.232 26.2439 18.232 29.2242C18.232 32.163 16.074 33.082 13.432 33.082H6.49Z" fill="white"/>
<path d="M37.592 38.5742C42.7 38.5742 46.008 36.3074 47.6 31.489H42.416C41.858 33.2875 39.558 34.2381 37.774 34.2381C34.332 34.2381 32.524 32.2519 32.524 28.8763H47.95C48.438 22.1212 44.63 16.3641 37.59 16.3641C31.072 16.3641 26.648 21.1904 26.648 27.5127C26.648 34.0741 30.84 38.5742 37.592 38.5742ZM37.408 20.7358C40.358 20.7358 41.842 22.4433 42.09 25.2359H32.532C32.726 22.4671 34.592 20.7358 37.408 20.7358Z" fill="white"/>
<path d="M31.334 10.4569H43.31V13.3226H31.334V10.4569Z" fill="white"/>
</g>
<defs>
<clipPath id="clip0">
<rect width="48" height="47.4321" fill="white" transform="translate(0 0.0356445)"/>
</clipPath>
</defs>
</svg>
