<svg width="48" height="48" viewBox="0 0 48 48" fill="none" xmlns="http://www.w3.org/2000/svg">
<g clip-path="url(#clip0)">
<path d="M24 0.0366211C10.7663 0.0366211 0 10.6755 0 23.7524C0 36.8293 10.7663 47.4682 24 47.4682C37.2337 47.4682 48 36.8293 48 23.7524C48 10.6755 37.2337 0.0366211 24 0.0366211ZM39.6398 11.2215C42.3342 14.4988 43.9929 18.6354 44.1309 23.1447C39.1399 22.1237 34.6206 22.2435 30.631 23.0165C29.9086 21.3471 29.1608 19.7567 28.406 18.2536C32.7509 16.404 36.5334 14.0416 39.6398 11.2215ZM36.9363 8.50629C33.8527 11.2875 30.2793 13.3468 26.6203 14.8672C23.9347 10.0142 21.3653 6.35968 19.8 4.28288C21.1554 3.99754 22.5598 3.84447 24 3.84447C28.9214 3.84447 33.4337 5.59963 36.9363 8.50629ZM15.908 5.52652C17.09 7.04001 19.9053 10.8296 22.9295 16.2212C15.329 18.6682 7.95402 19.0804 4.41013 19.1188C5.88729 13.0211 10.2085 8.00721 15.908 5.52652ZM3.87451 22.9363C3.91253 22.9363 3.94926 22.9365 3.98805 22.9365C6.43679 22.9365 10.9232 22.7738 16.205 21.8221C19.2184 21.2791 22.0758 20.5482 24.7571 19.6425C25.4551 21.0171 26.1489 22.4671 26.8217 23.987C23.0675 25.1814 19.9015 26.9 17.3937 28.6064C13.1883 31.4681 10.2422 34.6431 8.6335 36.6062C5.65505 33.1352 3.85344 28.649 3.85344 23.7524C3.85344 23.4787 3.8632 23.2074 3.87451 22.9363ZM11.4103 39.278C12.7952 37.5548 15.6141 34.4184 19.6919 31.6664C22.463 29.796 25.33 28.4063 28.2814 27.4942C29.9939 31.8804 31.4559 36.7267 32.3275 41.8727C29.7874 43.0171 26.9692 43.6603 24 43.6603C19.2392 43.6603 14.8619 42.0166 11.4103 39.278ZM35.8727 39.8223C34.9743 35.0962 33.6346 30.6525 32.0858 26.5913C35.8956 25.9561 39.833 26.0871 43.8771 26.9848C43.0049 32.237 40.0473 36.8024 35.8727 39.8223Z" fill="white"/>
</g>
<defs>
<clipPath id="clip0">
<rect width="48" height="47.4321" fill="white" transform="translate(0 0.0356445)"/>
</clipPath>
</defs>
</svg>
