<svg width="48" height="48" viewBox="0 0 48 48" fill="none" xmlns="http://www.w3.org/2000/svg">
<g clip-path="url(#clip0)">
<path d="M47.9531 14.4846C47.8406 11.9643 47.4282 10.2317 46.8374 8.73033C46.2279 7.13667 45.2902 5.70987 44.0617 4.52376C42.8614 3.31919 41.408 2.3832 39.8139 1.79032C38.2858 1.2065 36.5415 0.798946 33.9911 0.687828C31.4216 0.567299 30.6059 0.539429 24.089 0.539429C17.5721 0.539429 16.7564 0.567299 14.1965 0.678417C11.6461 0.789535 9.89267 1.19745 8.3737 1.78091C6.76059 2.3832 5.31671 3.30978 4.1164 4.52376C2.89741 5.70987 1.95057 7.14608 1.35024 8.72128C0.759424 10.2317 0.34699 11.9549 0.234542 14.4752C0.11257 17.0142 0.0843658 17.8203 0.0843658 24.2601C0.0843658 30.6999 0.11257 31.506 0.225018 34.0356C0.337467 36.5559 0.750267 38.2885 1.34108 39.7899C1.95057 41.3835 2.89741 42.8103 4.1164 43.9964C5.31671 45.201 6.77012 46.137 8.36418 46.7299C9.89267 47.3137 11.6365 47.7213 14.1873 47.8324C16.7469 47.9439 17.563 47.9714 24.0799 47.9714C30.5968 47.9714 31.4125 47.9439 33.9724 47.8324C36.5229 47.7213 38.2763 47.3137 39.7952 46.7299C43.0211 45.4974 45.5715 42.9772 46.8187 39.7899C47.4091 38.2795 47.8219 36.5559 47.9344 34.0356C48.0468 31.506 48.075 30.6999 48.075 24.2601C48.075 17.8203 48.0655 17.0142 47.9531 14.4846ZM43.6306 33.8503C43.5273 36.1668 43.1335 37.4177 42.8053 38.2516C41.9988 40.318 40.3392 41.9579 38.2481 42.755C37.4041 43.0793 36.1291 43.4684 33.7941 43.5701C31.2623 43.6815 30.503 43.7091 24.0986 43.7091C17.6941 43.7091 16.9253 43.6815 14.4027 43.5701C12.0585 43.4684 10.7926 43.0793 9.94872 42.755C8.90811 42.3749 7.9609 41.7726 7.19207 40.985C6.39504 40.2159 5.78555 39.2893 5.40095 38.261C5.07276 37.4271 4.67901 36.1668 4.57609 33.8597C4.46327 31.3579 4.43543 30.6072 4.43543 24.2786C4.43543 17.9499 4.46327 17.1902 4.57609 14.6978C4.67901 12.3813 5.07276 11.1304 5.40095 10.2965C5.78555 9.26782 6.39504 8.33218 7.2016 7.57209C7.97958 6.78449 8.91726 6.18221 9.95824 5.80253C10.8022 5.47822 12.0775 5.08912 14.4122 4.98705C16.944 4.87594 17.7036 4.84807 24.1077 4.84807C30.5217 4.84807 31.281 4.87594 33.8036 4.98705C36.1478 5.08912 37.4137 5.47822 38.2576 5.80253C39.2982 6.18221 40.2454 6.78449 41.0142 7.57209C41.8112 8.34123 42.4207 9.26782 42.8053 10.2965C43.1335 11.1304 43.5273 12.3904 43.6306 14.6978C43.743 17.1996 43.7712 17.9499 43.7712 24.2786C43.7712 30.6072 43.743 31.3485 43.6306 33.8503Z" fill="white"/>
<path d="M24.0889 12.0753C17.2816 12.0753 11.7584 17.5328 11.7584 24.26C11.7584 30.9871 17.2816 36.4446 24.0889 36.4446C30.8967 36.4446 36.4195 30.9871 36.4195 24.26C36.4195 17.5328 30.8967 12.0753 24.0889 12.0753ZM24.0889 32.1638C19.6727 32.1638 16.0904 28.6243 16.0904 24.26C16.0904 19.8956 19.6727 16.3561 24.0889 16.3561C28.5056 16.3561 32.0875 19.8956 32.0875 24.26C32.0875 28.6243 28.5056 32.1638 24.0889 32.1638Z" fill="white"/>
<path d="M39.7861 11.5937C39.7861 13.1646 38.4971 14.4383 36.9071 14.4383C35.3174 14.4383 34.0285 13.1646 34.0285 11.5937C34.0285 10.0225 35.3174 8.74915 36.9071 8.74915C38.4971 8.74915 39.7861 10.0225 39.7861 11.5937Z" fill="white"/>
</g>
<defs>
<clipPath id="clip0">
<rect width="48" height="47.4321" fill="white" transform="translate(0 0.539429)"/>
</clipPath>
</defs>
</svg>
