<svg width="48" height="49" viewBox="0 0 48 49" fill="none" xmlns="http://www.w3.org/2000/svg">
<g clip-path="url(#clip0)">
<path d="M47.988 48.0185V48.0165H48V30.6208C48 22.1107 46.146 15.5552 36.078 15.5552C31.238 15.5552 27.99 18.1798 26.664 20.668H26.524V16.3497H16.978V48.0165H26.918V32.3363C26.918 28.2077 27.71 24.2155 32.884 24.2155C37.982 24.2155 38.058 28.9271 38.058 32.6011V48.0185H47.988Z" fill="white"/>
<path d="M0.792114 16.3518H10.7441V48.0186H0.792114V16.3518Z" fill="white"/>
<path d="M5.764 0.586426C2.582 0.586426 0 3.13788 0 6.28223C0 9.42658 2.582 12.0314 5.764 12.0314C8.946 12.0314 11.528 9.42658 11.528 6.28223C11.526 3.13788 8.944 0.586426 5.764 0.586426V0.586426Z" fill="white"/>
</g>
<defs>
<clipPath id="clip0">
<rect width="48" height="47.4321" fill="white" transform="translate(0 0.586426)"/>
</clipPath>
</defs>
</svg>
