<svg width="101" height="101" viewBox="0 0 101 101" fill="none" xmlns="http://www.w3.org/2000/svg">
<rect x="33.667" y="33.6667" width="33.6667" height="14.0278" fill="black"/>
<path d="M28.0546 101C20.3073 101 14.0269 94.7196 14.0269 86.9722L14.0269 27.3074H28.0546L28.0546 101V101Z" fill="black"/>
<path d="M53.3062 86.9723V72.9445H101.001V72.9445C101.001 80.6918 94.7202 86.9723 86.9728 86.9723H53.3062Z" fill="black"/>
<rect x="53.3062" y="33.6667" width="14.0278" height="53.3056" fill="black"/>
<path d="M72.9443 0V0C80.6917 0 86.9721 6.28045 86.9721 14.0278V86.9722H72.9443V0Z" fill="black"/>
<rect x="33.667" y="33.6667" width="14.0278" height="53.3056" fill="black"/>
<path d="M0 28.0555C0 20.3082 6.28045 14.0277 14.0278 14.0277H67.3333V28.0555H0V28.0555Z" fill="black"/>
</svg>
