<svg width="48" height="39" viewBox="0 0 48 39" fill="none" xmlns="http://www.w3.org/2000/svg">
<path d="M44.17 5.37788L48 1.75723V0.964722H34.732L25.276 24.2222L14.518 0.964722H0.606V1.75723L5.08 7.07951C5.516 7.4728 5.744 8.04791 5.686 8.62698V29.5425C5.824 30.2955 5.576 31.0703 5.04 31.6177L0 37.6534V38.4361H14.29V37.6436L9.25 31.6177C8.704 31.0683 8.446 30.3074 8.556 29.5425V11.4512L21.1 38.4459H22.558L33.344 11.4512V32.9557C33.344 33.5229 33.344 33.6395 32.968 34.011L29.088 37.7206V38.5151H47.912V37.7226L44.172 34.1039C43.844 33.8589 43.674 33.4478 43.744 33.0486V6.43325C43.674 6.03205 43.842 5.62097 44.17 5.37788Z" fill="white"/>
</svg>
