<svg width="48" height="37" viewBox="0 0 48 37" fill="none" xmlns="http://www.w3.org/2000/svg">
<path d="M48 4.59606C46.215 5.32177 44.313 5.8028 42.33 6.03636C44.37 4.90748 45.927 3.13353 46.659 0.995333C44.757 2.04636 42.657 2.78875 40.419 3.20304C38.613 1.42075 36.039 0.316895 33.231 0.316895C27.783 0.316895 23.397 4.41533 23.397 9.43967C23.397 10.1626 23.463 10.8577 23.625 11.5195C15.444 11.1497 8.205 7.51558 3.342 1.97963C2.493 3.34485 1.995 4.90748 1.995 6.58967C1.995 9.74831 3.75 12.5483 6.366 14.1693C4.785 14.1415 3.234 13.7161 1.92 13.046C1.92 13.0738 1.92 13.1099 1.92 13.1461C1.92 17.5782 5.331 21.2595 9.804 22.1076C9.003 22.3105 8.13 22.4079 7.224 22.4079C6.594 22.4079 5.958 22.3745 5.361 22.2522C6.636 25.864 10.254 28.5194 14.556 28.6056C11.208 31.0329 6.957 32.4955 2.355 32.4955C1.548 32.4955 0.774 32.4621 0 32.3703C4.359 34.9757 9.525 36.4632 15.096 36.4632C33.204 36.4632 43.104 22.5608 43.104 10.5102C43.104 10.107 43.089 9.71772 43.068 9.33123C45.021 8.04665 46.662 6.44231 48 4.59606Z" fill="white"/>
</svg>
